<?xml version="1.0" encoding="UTF-8" standalone="no"?><!DOCTYPE svg PUBLIC "-//W3C//DTD SVG 1.1//EN" "http://www.w3.org/Graphics/SVG/1.1/DTD/svg11.dtd"><svg width="100%" height="100%" viewBox="0 0 280 455" version="1.1" xmlns="http://www.w3.org/2000/svg" xmlns:xlink="http://www.w3.org/1999/xlink" xml:space="preserve" style="fill-rule:evenodd;clip-rule:evenodd;stroke-linejoin:round;stroke-miterlimit:1.41421;"><g id="black"><g id="black1"><path d="M100,288c0.028,0.003 10,0.726 10,-9l10,0l11,-18l9,0l0,40l-10,10l-40,0l-14,-23l24,0Z" style="fill:#f20d5e;"/><path d="M0,11l0.146,-0.063c1.44,-0.613 13.169,-5.562 19.854,-6.937c27.264,-5.607 45.311,20.362 56.993,46.816l0.007,0.184l-0.203,-0.068c0.135,0.041 0.203,0.068 0.203,0.068c-2.2,-4.687 -9.5,-6.5 -9.5,-6.5c-41.504,10.355 -61.5,-33.5 -61.5,-33.5l-6,0ZM75,1l0.048,1.207c-0.161,-0.444 -0.319,-0.873 -0.475,-1.286l0.427,0.079Z" style="fill:#f20d5e;"/><path d="M92.782,95.323l0.074,0.228l-0.076,-0.237l0.002,0.009ZM92.694,95.051l0.056,0.172l-0.062,-0.191l0.006,0.019ZM92.591,94.737l0.051,0.155l-0.061,-0.185l0.01,0.03ZM92.474,94.381l0.045,0.137l-0.058,-0.175l0.013,0.038ZM92.343,93.986l0.037,0.112l-0.052,-0.155l0.015,0.043ZM92.198,93.553l0.027,0.081l-0.041,-0.122l0.014,0.041ZM92.04,93.083l0.015,0.043l-0.025,-0.071l0.01,0.028ZM70,51l0.217,-0.043c4.505,-0.863 6.763,0.035 6.783,0.043l0.074,0c7.047,16.001 11.769,32.152 14.795,41.577c-3.307,-9.746 -13.268,-37.226 -21.808,-41.546l-0.061,-0.031Z" style="fill:#f20d5e;"/><path d="M140,455c-7.92,-12.018 -14.584,-38.743 -17.847,-53.575l17.847,14.575l0,39Z" style="fill:#f20d5e;"/></g><g id="black2"><path d="M180,288c-0.028,0.003 -10,0.726 -10,-9l-10,0l-11,-18l-9,0l0,40l10,10l40,0l14,-23l-24,0Z" style="fill:#f20d5e;"/><path d="M280,11l-0.146,-0.063c-1.44,-0.613 -13.169,-5.562 -19.854,-6.937c-27.264,-5.607 -45.311,20.362 -56.993,46.816l-0.007,0.184l0.203,-0.068c-0.135,0.041 -0.203,0.068 -0.203,0.068c2.2,-4.687 9.5,-6.5 9.5,-6.5c41.504,10.355 61.5,-33.5 61.5,-33.5l6,0ZM205,1l-0.048,1.207c0.161,-0.444 0.319,-0.873 0.475,-1.286l-0.427,0.079Z" style="fill:#f20d5e;"/><path d="M187.218,95.323l-0.074,0.228l0.076,-0.237l-0.002,0.009ZM187.306,95.051l-0.056,0.172l0.062,-0.191l-0.006,0.019ZM187.409,94.737l-0.051,0.155l0.061,-0.185l-0.01,0.03ZM187.526,94.381l-0.045,0.137l0.058,-0.175l-0.013,0.038ZM187.657,93.986l-0.037,0.112l0.052,-0.155l-0.015,0.043ZM187.802,93.553l-0.027,0.081l0.041,-0.122l-0.014,0.041ZM187.96,93.083l-0.015,0.043l0.025,-0.071l-0.01,0.028ZM210,51l-0.217,-0.043c-4.505,-0.863 -6.763,0.035 -6.783,0.043l-0.074,0c-7.047,16.001 -11.769,32.152 -14.795,41.577c3.307,-9.746 13.268,-37.226 21.808,-41.546l0.061,-0.031Z" style="fill:#f20d5e;"/><path d="M140,455c7.92,-12.018 14.584,-38.743 17.847,-53.575l-17.847,14.575l0,39Z" style="fill:#f20d5e;"/></g></g></svg>