<?xml version="1.0" encoding="UTF-8" standalone="no"?><!DOCTYPE svg PUBLIC "-//W3C//DTD SVG 1.1//EN" "http://www.w3.org/Graphics/SVG/1.1/DTD/svg11.dtd"><svg width="100%" height="100%" viewBox="0 0 390 870" version="1.1" xmlns="http://www.w3.org/2000/svg" xmlns:xlink="http://www.w3.org/1999/xlink" xml:space="preserve" style="fill-rule:evenodd;clip-rule:evenodd;stroke-linejoin:round;stroke-miterlimit:1.41421;"><g id="dither"><g id="dither1"><path d="M0,0c6.089,6.378 56.464,59.319 90,100c0,0 -18.522,22.016 -35,55c0,0 -11.411,-105.814 -55,-155l0,0Z" style="fill:#f20d5e;"/><path d="M152,830l-17,0l-3,-10l-14,0l-3,-25l-40,0l-40,-42l-34,0l9,-18l-5,-45l26,44c0,0 0.732,-8.355 4.351,-19.885l0,0l44.649,60.885l5.073,-31.709l70.927,74.709c0,0 1.975,-17.995 7,-25l32,47l0,30l-43,-40Z" style="fill:#f20d5e;"/></g><g id="dither2"><path d="M390,0c-6.089,6.378 -56.464,59.319 -90,100c0,0 18.522,22.016 35,55c0,0 11.411,-105.814 55,-155l0,0Z" style="fill:#f20d5e;"/><path d="M238,830l17,0l3,-10l14,0l3,-25l40,0l40,-42l34,0l-9,-18l5,-45l-26,44c0,0 -0.732,-8.355 -4.351,-19.885l0,0l-44.649,60.885l-5.073,-31.709l-70.927,74.709c0,0 -1.975,-17.995 -7,-25l-32,47l0,30l43,-40Z" style="fill:#f20d5e;"/></g></g></svg>