<?xml version="1.0" encoding="UTF-8" standalone="no"?><!DOCTYPE svg PUBLIC "-//W3C//DTD SVG 1.1//EN" "http://www.w3.org/Graphics/SVG/1.1/DTD/svg11.dtd"><svg width="100%" height="100%" viewBox="0 0 650 649" version="1.1" xmlns="http://www.w3.org/2000/svg" xmlns:xlink="http://www.w3.org/1999/xlink" xml:space="preserve" style="fill-rule:evenodd;clip-rule:evenodd;stroke-linejoin:round;stroke-miterlimit:1.41421;"><g id="hair"><g id="hair1"><path d="M193.945,69.988c-3.053,-2.143 -6.063,-3.866 -8.945,-4.988c-21.394,-8.326 -28.346,-9.233 -58.544,-9.965l-1.456,-0.035l0.829,-0.815c3.736,-3.672 19.149,-18.79 26.671,-25.685c10,-9.167 32.5,-28.5 32.5,-28.5l0.138,0.083c0.62,0.378 3.3,2.041 7.493,5.077l0.41,0.299c14.199,10.342 44.776,40.237 71.84,83.85c-15.387,-10.591 -37.974,-18.95 -71.02,-19.38l0.084,0.059Z" style="fill:#f20d5e;"/><path d="M0,302c0,0 14.067,-12.178 53.002,-21.467c12.351,8.488 36.83,25.106 57.855,38.125c-20.91,-9.598 -51.397,-19.675 -85.857,-18.658c-9.599,0 -23.173,1.758 -24.832,1.978l-0.168,0.022Z" style="fill:#f20d5e;"/><path d="M264.972,89.372l60.028,-84.372l0,45l-52.867,44.887c-2.193,-1.883 -4.575,-3.73 -7.161,-5.515Z" style="fill:#f20d5e;"/><path d="M165.128,125.27c1.257,2.624 11.497,23.647 19.666,29.584l0.206,0.146c0,0 -9.737,1.728 -19.763,9.808l-0.237,0.192c-28.926,-9.164 -100,-10 -100,-10l-10,0l81.831,-77.839c6.047,10.71 15.012,26.108 28.169,47.839l0.128,0.27Z" style="fill:#f20d5e;"/><path d="M85,375c0,0 -30,67.469 -30,90c0,22.531 0,45 0,45l10,5l0,40l20,-40l5,-45l45,-25l-50,-70Z" style="fill:#f20d5e;"/><path d="M215,365l30,-135l0.162,0.062c1.583,0.602 14.622,5.482 32.007,9.736l0.831,0.202l-63,125Z" style="fill:#f20d5e;"/><path d="M214.876,364.89c-1.219,-1.086 -11.061,-9.996 -13.876,-16.89c-0.024,-0.06 -0.053,-0.124 -0.085,-0.192c-1.974,-4.466 -38.361,-85.498 -90.155,-110.67l24.24,-27.138l0.162,0.146c3.316,3.009 56.745,52.766 79.838,154.854l-0.124,-0.11Z" style="fill:#f20d5e;"/><path d="M28.629,256.446c-8.667,-2.939 -13.629,-6.446 -13.629,-6.446l0,-45c2.015,-2.138 2.767,-4.033 20,-15c1.345,-0.856 2.541,-1.73 3.603,-2.616c27.349,-17.425 99.775,-18.031 126.397,-17.629l0,0.245l10,0l-40,40l-24.019,26.891l-0.221,0.109l-0.139,0.071c-11.091,-5.367 -22.886,-8.169 -35.201,-7.109l-0.42,0.038c0,0 -24.228,11.886 -46.371,26.446Z" style="fill:#f20d5e;"/><path d="M285.008,463.018c-12.105,2.373 -31.78,2.334 -44.008,-1.018c-17.189,-4.712 -30,-1 -30,-1c5.92,-15.132 34,-46 34,-46l16,17l14,23l10,8l0.008,0.018Z" style="fill:#f20d5e;"/><path d="M210,620l-44.649,-60.885c6.765,-21.561 23.622,-54.223 64.649,-64.115l-20,125Z" style="fill:#f20d5e;"/><path d="M325,649c-26.356,-44.345 -39,-84 -39,-84c0.933,-6.765 6.701,-18.371 11.64,-27.344l9.513,7.769c3.263,14.832 9.927,41.557 17.847,53.575l0,50Z" style="fill:#f20d5e;"/><path d="M325,540l-37.77,-32.374l37.77,-17.626l0,50Z" style="fill:#f20d5e;"/></g><g id="hair2"><path d="M456.055,69.988c3.053,-2.143 6.063,-3.866 8.945,-4.988c21.394,-8.326 28.346,-9.233 58.544,-9.965l1.456,-0.035l-0.829,-0.815c-3.736,-3.672 -19.149,-18.79 -26.671,-25.685c-10,-9.167 -32.5,-28.5 -32.5,-28.5l-0.138,0.083c-0.62,0.378 -3.3,2.041 -7.493,5.077l-0.41,0.299c-14.199,10.342 -44.776,40.237 -71.84,83.85c15.387,-10.591 37.974,-18.95 71.02,-19.38l-0.084,0.059Z" style="fill:#f20d5e;"/><path d="M650,302c0,0 -14.067,-12.178 -53.002,-21.467c-12.351,8.488 -36.83,25.106 -57.855,38.125c20.91,-9.598 51.397,-19.675 85.857,-18.658c9.599,0 23.173,1.758 24.832,1.978l0.168,0.022Z" style="fill:#f20d5e;"/><path d="M385.028,89.372l-60.028,-84.372l0,45l52.867,44.887c2.193,-1.883 4.575,-3.73 7.161,-5.515Z" style="fill:#f20d5e;"/><path d="M484.872,125.27c-1.257,2.624 -11.497,23.647 -19.666,29.584l-0.206,0.146c0,0 9.737,1.728 19.763,9.808l0.237,0.192c28.926,-9.164 100,-10 100,-10l10,0l-81.831,-77.839c-6.047,10.71 -15.012,26.108 -28.169,47.839l-0.128,0.27Z" style="fill:#f20d5e;"/><path d="M565,375c0,0 30,67.469 30,90c0,22.531 0,45 0,45l-10,5l0,40l-20,-40l-5,-45l-45,-25l50,-70Z" style="fill:#f20d5e;"/><path d="M435,365l-30,-135l-0.162,0.062c-1.583,0.602 -14.622,5.482 -32.007,9.736l-0.831,0.202l63,125Z" style="fill:#f20d5e;"/><path d="M435.124,364.89c1.219,-1.086 11.061,-9.996 13.876,-16.89c0.024,-0.06 0.053,-0.124 0.085,-0.192c1.974,-4.466 38.361,-85.498 90.155,-110.67l-24.24,-27.138l-0.162,0.146c-3.316,3.009 -56.745,52.766 -79.838,154.854l0.124,-0.11Z" style="fill:#f20d5e;"/><path d="M621.371,256.446c8.667,-2.939 13.629,-6.446 13.629,-6.446l0,-45c-2.015,-2.138 -2.767,-4.033 -20,-15c-1.345,-0.856 -2.541,-1.73 -3.603,-2.616c-27.349,-17.425 -99.775,-18.031 -126.397,-17.629l0,0.245l-10,0l40,40l24.019,26.891l0.221,0.109l0.139,0.071c11.091,-5.367 22.886,-8.169 35.201,-7.109l0.42,0.038c0,0 24.228,11.886 46.371,26.446Z" style="fill:#f20d5e;"/><path d="M364.992,463.018c12.105,2.373 31.78,2.334 44.008,-1.018c17.189,-4.712 30,-1 30,-1c-5.92,-15.132 -34,-46 -34,-46l-16,17l-14,23l-10,8l-0.008,0.018Z" style="fill:#f20d5e;"/><path d="M440,620l44.649,-60.885c-6.765,-21.561 -23.622,-54.223 -64.649,-64.115l20,125Z" style="fill:#f20d5e;"/><path d="M325,649c26.356,-44.345 39,-84 39,-84c-0.933,-6.765 -6.701,-18.371 -11.64,-27.344l-9.513,7.769c-3.263,14.832 -9.927,41.557 -17.847,53.575l0,50Z" style="fill:#f20d5e;"/><path d="M325,540l37.77,-32.374l-37.77,-17.626l0,50Z" style="fill:#f20d5e;"/></g></g></svg>