<?xml version="1.0" encoding="UTF-8" standalone="no"?><!DOCTYPE svg PUBLIC "-//W3C//DTD SVG 1.1//EN" "http://www.w3.org/Graphics/SVG/1.1/DTD/svg11.dtd"><svg width="100%" height="100%" viewBox="0 0 640 840" version="1.1" xmlns="http://www.w3.org/2000/svg" xmlns:xlink="http://www.w3.org/1999/xlink" xml:space="preserve" style="fill-rule:evenodd;clip-rule:evenodd;stroke-linejoin:round;stroke-miterlimit:1.41421;"><g id="lines"><g id="lines1"><path d="M180,155c0,0 -11.199,-105.94 -55,-155l-5,135l60,20Z" style="fill:#f20d5e;"/><path d="M132,232c0,0 -77.896,-2.822 -89,21c0,0 -14.093,45.645 -18,50c0,0 7.325,-2.62 15,-8l0,15l10,0l82,-78Z" style="fill:#f20d5e;"/><path d="M20,455c0,0 9.159,6.242 0,45c-9.159,38.758 -20,80 -20,80c0,0 62.817,-38.409 80,-50c17.183,-11.591 55,-40 55,-40c0,0 -50.55,-36.901 -115,-35Z" style="fill:#f20d5e;"/><path d="M130,365c0,0 56.163,49.619 80,155l30,-135l-110,-20Z" style="fill:#f20d5e;"/><path d="M160.089,279.973c1.83,-0.545 31.658,-9.26 69.911,-9.973l0.053,0.093c0.535,0.923 5.271,8.651 19.947,19.907c0.029,0.042 13.849,19.799 22.894,104.005l0.106,0.995l-0.144,-0.449c-0.177,-0.549 -0.514,-1.58 -0.987,-2.974c-8.042,-25.045 -28.053,-97.589 -71.869,-88.577c-6.685,1.375 -18.414,6.324 -19.854,6.937l-0.146,0.063l-0.206,-0.146c-8.169,-5.937 -18.409,-26.96 -19.666,-29.584l-0.128,-0.27l0.089,-0.027Z" style="fill:#f20d5e;"/><path d="M320,840l-32,-47c-5.025,7.005 -7,25 -7,25l-70.927,-74.709l14.927,-93.291l0.178,0.203c1.746,2.003 15.846,18.391 19.822,29.797l20.455,-9.545l27.467,22.431l-0.282,-0.23c-4.939,8.973 -10.707,20.579 -11.64,27.344c0,0 12.644,39.655 39,84l0,36Z" style="fill:#f20d5e;"/></g><g id="lines2"><path d="M460,155c0,0 11.199,-105.94 55,-155l5,135l-60,20Z" style="fill:#f20d5e;"/><path d="M508,232c0,0 77.896,-2.822 89,21c0,0 14.093,45.645 18,50c0,0 -7.325,-2.62 -15,-8l0,15l-10,0l-82,-78Z" style="fill:#f20d5e;"/><path d="M620,455c0,0 -9.159,6.242 0,45c9.159,38.758 20,80 20,80c0,0 -62.817,-38.409 -80,-50c-17.183,-11.591 -55,-40 -55,-40c0,0 50.55,-36.901 115,-35Z" style="fill:#f20d5e;"/><path d="M510,365c0,0 -56.163,49.619 -80,155l-30,-135l110,-20Z" style="fill:#f20d5e;"/><path d="M479.911,279.973c-1.83,-0.545 -31.658,-9.26 -69.911,-9.973l-0.053,0.093c-0.535,0.923 -5.271,8.651 -19.947,19.907c-0.029,0.042 -13.849,19.799 -22.894,104.005l-0.106,0.995l0.144,-0.449c0.177,-0.549 0.514,-1.58 0.987,-2.974c8.042,-25.045 28.053,-97.589 71.869,-88.577c6.685,1.375 18.414,6.324 19.854,6.937l0.146,0.063l0.206,-0.146c8.169,-5.937 18.409,-26.96 19.666,-29.584l0.128,-0.27l-0.089,-0.027Z" style="fill:#f20d5e;"/><path d="M320,840l32,-47c5.025,7.005 7,25 7,25l70.927,-74.709l-14.927,-93.291l-0.178,0.203c-1.746,2.003 -15.846,18.391 -19.822,29.797l-20.455,-9.545l-27.467,22.431l0.282,-0.23c4.939,8.973 10.707,20.579 11.64,27.344c0,0 -12.644,39.655 -39,84l0,36Z" style="fill:#f20d5e;"/></g></g></svg>