<?xml version="1.0" encoding="UTF-8" standalone="no"?><!DOCTYPE svg PUBLIC "-//W3C//DTD SVG 1.1//EN" "http://www.w3.org/Graphics/SVG/1.1/DTD/svg11.dtd"><svg width="100%" height="100%" viewBox="0 0 650 645" version="1.1" xmlns="http://www.w3.org/2000/svg" xmlns:xlink="http://www.w3.org/1999/xlink" xml:space="preserve" style="fill-rule:evenodd;clip-rule:evenodd;stroke-linejoin:round;stroke-miterlimit:1.41421;"><g id="noise"><g id="noise1"><path d="M125,120c0,0 6.023,13.881 40,70c0,0 30.511,-9.264 70,-10c0,0 -28.553,-41.653 -50,-50c-21.733,-8.459 -28.563,-9.26 -60,-10Z" style="fill:#f20d5e;"/><path d="M60.17,135.1c3.477,-2.764 8.336,-5.1 14.83,-5.1c13.162,0 41.091,3.422 61.473,11.984c-5.452,-0.155 -51.874,-1.12 -75.739,10.044l-0.564,-16.928ZM136.584,141.722l0.416,0.278c0,0 -0.09,-0.003 -0.265,-0.009l-0.151,-0.269Z" style="fill:#f20d5e;"/><path d="M193.041,70.459c14.928,-17.285 43.888,-50.26 51.959,-55.459l45,-5l5,75l-25,-35l-5,104.5c-27.094,-43.716 -57.739,-73.684 -71.959,-84.041Z" style="fill:#f20d5e;"/><path d="M125,45l60,20c0,0 -22.5,19.333 -32.5,28.5c-8.597,7.88 -27.5,26.5 -27.5,26.5c0,0 -30.969,-6.784 -45,-5l-0.073,-1.83c13.115,-28.87 35.396,-56.985 45.073,-68.17Z" style="fill:#f20d5e;"/><path d="M29,230l16,-10l20,0c0,0 71.074,0.836 100,10l10,5c0,0 -110.698,-4.472 -140,20l-6,-25Z" style="fill:#f20d5e;"/><path d="M75,295c0,0 -40.913,20.073 -65,40c0,0 -5.969,21.094 -10,32c0,0 26.843,-23.239 109,-30l-34,-42Z" style="fill:#f20d5e;"/><path d="M325,135l-30,29l30,26l0,-55Z" style="fill:#f20d5e;"/><path d="M325,70l0,-70l-10,0l10,70" style="fill:#f20d5e;"/><path d="M285,395l40,33l0,-33l-40,0Z" style="fill:#f20d5e;"/><path d="M325,435l-18,0l-2,23l11,12l9,0l0,-35Z" style="fill:#f20d5e;"/><path d="M155,530l-70,50l-20,40l15,-5l5,15l30,-10l25,25l-5,-45l20,-70Z" style="fill:#f20d5e;"/><path d="M200,445c-14.452,-24.264 -51.774,-41.42 -58.837,-44.502c24.27,10.183 59.837,12.502 59.837,12.502l-1,32Z" style="fill:#f20d5e;"/><path d="M84.914,440.194c-1.76,3.979 -29.914,67.979 -29.914,89.806l0,1.229c-6.817,2.615 -12,3.771 -12,3.771c-2.607,-8.526 -3,-15 -3,-15c-7.155,4.207 -11,4 -11,4c2.809,-10.491 2.388,-34.388 1.75,-49.828c19.433,-11.995 44.376,-27.511 54.25,-34.172l-0.086,0.194Z" style="fill:#f20d5e;"/><path d="M210.673,491.239c1.517,-6.63 2.608,-14.565 3.315,-20.778c3.825,6.53 6.738,11.022 8.956,14.085l0.056,-0.042l0,0c-3.252,2.443 -7.307,4.807 -12.327,6.735Z" style="fill:#f20d5e;"/></g><g id="noise2"><path d="M525,120c0,0 -6.023,13.881 -40,70c0,0 -30.511,-9.264 -70,-10c0,0 28.553,-41.653 50,-50c21.733,-8.459 28.563,-9.26 60,-10Z" style="fill:#f20d5e;"/><path d="M589.83,135.1c-3.477,-2.764 -8.336,-5.1 -14.83,-5.1c-13.162,0 -41.091,3.422 -61.473,11.984c5.452,-0.155 51.874,-1.12 75.739,10.044l0.564,-16.928ZM513.416,141.722l-0.416,0.278c0,0 0.09,-0.003 0.265,-0.009l0.151,-0.269Z" style="fill:#f20d5e;"/><path d="M456.959,70.459c-14.928,-17.285 -43.888,-50.26 -51.959,-55.459l-45,-5l-5,75l25,-35l5,104.5c27.094,-43.716 57.739,-73.684 71.959,-84.041Z" style="fill:#f20d5e;"/><path d="M525,45l-60,20c0,0 22.5,19.333 32.5,28.5c8.597,7.88 27.5,26.5 27.5,26.5c0,0 30.969,-6.784 45,-5l0.073,-1.83c-13.115,-28.87 -35.396,-56.985 -45.073,-68.17Z" style="fill:#f20d5e;"/><path d="M621,230l-16,-10l-20,0c0,0 -71.074,0.836 -100,10l-10,5c0,0 110.698,-4.472 140,20l6,-25Z" style="fill:#f20d5e;"/><path d="M575,295c0,0 40.913,20.073 65,40c0,0 5.969,21.094 10,32c0,0 -26.843,-23.239 -109,-30l34,-42Z" style="fill:#f20d5e;"/><path d="M325,135l30,29l-30,26l0,-55Z" style="fill:#f20d5e;"/><path d="M325,70l0,-70l10,0l-10,70" style="fill:#f20d5e;"/><path d="M365,395l-40,33l0,-33l40,0Z" style="fill:#f20d5e;"/><path d="M325,435l18,0l2,23l-11,12l-9,0l0,-35Z" style="fill:#f20d5e;"/><path d="M495,530l70,50l20,40l-15,-5l-5,15l-30,-10l-25,25l5,-45l-20,-70Z" style="fill:#f20d5e;"/><path d="M450,445c14.452,-24.264 51.774,-41.42 58.837,-44.502c-24.27,10.183 -59.837,12.502 -59.837,12.502l1,32Z" style="fill:#f20d5e;"/><path d="M565.086,440.194c1.76,3.979 29.914,67.979 29.914,89.806l0,1.229c6.817,2.615 12,3.771 12,3.771c2.607,-8.526 3,-15 3,-15c7.155,4.207 11,4 11,4c-2.809,-10.491 -2.388,-34.388 -1.75,-49.828c-19.433,-11.995 -44.376,-27.511 -54.25,-34.172l0.086,0.194Z" style="fill:#f20d5e;"/><path d="M439.327,491.239c-1.517,-6.63 -2.608,-14.565 -3.315,-20.778c-3.825,6.53 -6.738,11.022 -8.956,14.085l-0.056,-0.042l0,0c3.252,2.443 7.307,4.807 12.327,6.735Z" style="fill:#f20d5e;"/></g></g></svg>