<?xml version="1.0" encoding="UTF-8" standalone="no"?><!DOCTYPE svg PUBLIC "-//W3C//DTD SVG 1.1//EN" "http://www.w3.org/Graphics/SVG/1.1/DTD/svg11.dtd"><svg width="100%" height="100%" viewBox="0 0 546 759" version="1.1" xmlns="http://www.w3.org/2000/svg" xmlns:xlink="http://www.w3.org/1999/xlink" xml:space="preserve" style="fill-rule:evenodd;clip-rule:evenodd;stroke-linejoin:round;stroke-miterlimit:1.41421;"><g id="white"><g id="white1"><path d="M78,25l-5,135c-9.677,11.185 -31.958,39.3 -45.073,68.17l-4.927,-123.17c0,0 49.004,-77.94 55,-80Z" style="fill:#f20d5e;"/><path d="M84.811,257.126c-20.411,-8.666 -48.576,-12.126 -61.811,-12.126c-15.896,0 -22,14 -22,14c-2.851,-19.15 1.992,-113.85 2,-114l10,0l0,-50c38.422,-83.24 64,-95 64,-95c0,0 59.406,47.557 116,115l50,0l10,-10l10,10l10,70l-60,84.5l5,-104.5l25,35l-5,-75l-45,5c-8.071,5.199 -37.031,38.174 -51.959,55.459c-5.061,-3.687 -8.041,-5.459 -8.041,-5.459c16.38,-32.556 35,-55 35,-55c-35.772,-43.393 -90,-100 -90,-100c-5.996,2.06 -55,80 -55,80l5,125c13.155,-1.672 41.547,4.261 45,5c0,0 0.221,0.509 0.817,1.726c1.309,2.676 4.429,8.771 10.994,20.4Z" style="fill:#f20d5e;"/><path d="M141.861,249.929c92.899,1.21 103.139,65.071 103.139,65.071l-42,0c-15.655,-12.008 -20,-20 -20,-20l-0.083,-0.12c-1.462,-2.114 -22.082,-31.676 -41.056,-44.951Z" style="fill:#f20d5e;"/><path d="M203,315c0,0 13.948,19.864 23,105l7,90c0.367,12.589 12,-195 12,-195l-42,0Z" style="fill:#f20d5e;"/><path d="M273,305l-28,10l-12,195l40,-205Z" style="fill:#f20d5e;"/><path d="M220.162,274.912l52.838,-44.912l0,20l-30,29l30,26l-28,10l-0.008,-0.046c-0.191,-1.116 -4.049,-22.182 -24.83,-40.042Z" style="fill:#f20d5e;"/><path d="M233,510l40,0l0,-205l-40,205Z" style="fill:#f20d5e;"/><path d="M133,335c0,0 -9.892,1.756 -20,10l0,5l10,0l-10,10l40,40l0,-25l40,35c0,0 14.015,5.414 33,10c0,0 -12.575,-39.856 -23,-45c0,0 -46.622,11.614 -70,-40Z" style="fill:#f20d5e;"/><path d="M187.493,434.783l-104.493,-44.783l30,-30l40,40l0,-25l40,35l-5.507,24.783Z" style="fill:#f20d5e;"/><path d="M226,420l-63,125l20,40c0,0 9.016,5 50,5l-15,-20l-5,-35l20,-25" style="fill:#f20d5e;"/><path d="M23,410c71.751,-6.683 126,118 126,118c0,0 -36.721,-2.394 -61,-13l-0.147,-0.106c-1.356,-0.969 -12.019,-8.444 -28.992,-16.234c-21.026,-13.019 -45.508,-29.639 -57.859,-38.127c14.849,-3.543 33.315,-6.666 55.998,-8.533l-34,-42Z" style="fill:#f20d5e;"/><path d="M193,595c0,0 -28.08,30.868 -34,46c0,0 12.811,-3.712 30,1c12.178,3.338 31.742,3.39 43.858,1.047c15.353,11.361 40.142,26.953 40.142,26.953l-75,35c-4.241,-12.166 -20,-30 -20,-30c-62.968,15.182 -69,84 -69,84l-26,-44l20,-70c6.167,-22.334 15,-35 15,-35c53.646,6.103 65,-25 65,-25l10,10Z" style="fill:#f20d5e;"/><path d="M243,603c0,9.726 -9.972,9.003 -10,9l-24,0l-16,-17l-10,-10l0.027,0.014c0.569,0.294 10.272,4.986 49.973,4.986l10,13Z" style="fill:#f20d5e;"/><path d="M273,670c0,0 -24.527,-15.427 -39.896,-26.772l-0.104,-0.228l-10,-8l40,0l10,-10l0,45Z" style="fill:#f20d5e;"/><path d="M149.067,528.162c2.901,6.871 12.6,15.65 13.809,16.728l0.124,0.11l20,40c0,0 -2.773,7.598 -12.056,14.546c-4.379,-6.049 -11.469,-17.667 -22.944,-39.546l1,-32l0.067,0.162Z" style="fill:#f20d5e;"/><path d="M33,555l0.82,-0.555c17.536,-11.917 54.18,-39.445 54.18,-39.445l1.163,0.498c7.063,3.082 44.385,20.238 58.837,44.502l0.535,1.018c5.422,10.31 9.847,18.29 13.459,24.454l0,0l-0.006,-0.011c-0.707,6.213 -1.798,14.147 -3.315,20.778c-9.627,3.699 -22.804,5.794 -40.673,3.761c0,0 -8.696,12.469 -14.855,34.478l-0.145,0.522l-70,50l5,-45l45,-25l-50,-70ZM158.899,606.152l-0.017,0.006l0.017,-0.006l0,0Z" style="fill:#f20d5e;"/><path d="M235.23,687.626l37.77,32.374l0,20l-54.545,-44.545l16.775,-7.829Z" style="fill:#f20d5e;"/><path d="M133,335l6,0c0,0 19.996,43.855 61.5,33.5c0,0 7.3,1.813 9.5,6.5c0,0 -2.258,-0.91 -6.783,-0.043l-0.217,0.043c0,0 -46.44,11.568 -69.863,-39.698l-0.137,-0.302Z" style="fill:#f20d5e;"/></g><g id="white2"><path d="M468,25l5,135c9.677,11.185 31.958,39.3 45.073,68.17l4.927,-123.17c0,0 -49.004,-77.94 -55,-80Z" style="fill:#f20d5e;"/><path d="M461.189,257.126c20.411,-8.666 48.576,-12.126 61.811,-12.126c15.896,0 22,14 22,14c2.851,-19.15 -1.992,-113.85 -2,-114l-10,0l0,-50c-38.422,-83.24 -64,-95 -64,-95c0,0 -59.406,47.557 -116,115l-50,0l-10,-10l-10,10l-10,70l60,84.5l-5,-104.5l-25,35l5,-75l45,5c8.071,5.199 37.031,38.174 51.959,55.459c5.061,-3.687 8.041,-5.459 8.041,-5.459c-16.38,-32.556 -35,-55 -35,-55c35.772,-43.393 90,-100 90,-100c5.996,2.06 55,80 55,80l-5,125c-13.155,-1.672 -41.547,4.261 -45,5c0,0 -0.221,0.509 -0.817,1.726c-1.309,2.676 -4.429,8.771 -10.994,20.4Z" style="fill:#f20d5e;"/><path d="M404.139,249.929c-92.899,1.21 -103.139,65.071 -103.139,65.071l42,0c15.655,-12.008 20,-20 20,-20l0.083,-0.12c1.462,-2.114 22.082,-31.676 41.056,-44.951Z" style="fill:#f20d5e;"/><path d="M343,315c0,0 -13.948,19.864 -23,105l-7,90c-0.367,12.589 -12,-195 -12,-195l42,0Z" style="fill:#f20d5e;"/><path d="M273,305l28,10l12,195l-40,-205Z" style="fill:#f20d5e;"/><path d="M325.838,274.912l-52.838,-44.912l0,20l30,29l-30,26l28,10l0.008,-0.046c0.191,-1.116 4.049,-22.182 24.83,-40.042Z" style="fill:#f20d5e;"/><path d="M313,510l-40,0l0,-205l40,205Z" style="fill:#f20d5e;"/><path d="M413,335c0,0 9.892,1.756 20,10l0,5l-10,0l10,10l-40,40l0,-25l-40,35c0,0 -14.015,5.414 -33,10c0,0 12.575,-39.856 23,-45c0,0 46.622,11.614 70,-40Z" style="fill:#f20d5e;"/><path d="M358.507,434.783l104.493,-44.783l-30,-30l-40,40l0,-25l-40,35l5.507,24.783Z" style="fill:#f20d5e;"/><path d="M320,420l63,125l-20,40c0,0 -9.016,5 -50,5l15,-20l5,-35l-20,-25" style="fill:#f20d5e;"/><path d="M523,410c-71.751,-6.683 -126,118 -126,118c0,0 36.721,-2.394 61,-13l0.147,-0.106c1.356,-0.969 12.019,-8.444 28.992,-16.234c21.026,-13.019 45.508,-29.639 57.859,-38.127c-14.849,-3.543 -33.315,-6.666 -55.998,-8.533l34,-42Z" style="fill:#f20d5e;"/><path d="M353,595c0,0 28.08,30.868 34,46c0,0 -12.811,-3.712 -30,1c-12.178,3.338 -31.742,3.39 -43.858,1.047c-15.353,11.361 -40.142,26.953 -40.142,26.953l75,35c4.241,-12.166 20,-30 20,-30c62.968,15.182 69,84 69,84l26,-44l-20,-70c-6.167,-22.334 -15,-35 -15,-35c-53.646,6.103 -65,-25 -65,-25l-10,10Z" style="fill:#f20d5e;"/><path d="M303,603c0,9.726 9.972,9.003 10,9l24,0l16,-17l10,-10l-0.027,0.014c-0.569,0.294 -10.272,4.986 -49.973,4.986l-10,13Z" style="fill:#f20d5e;"/><path d="M273,670c0,0 24.527,-15.427 39.896,-26.772l0.104,-0.228l10,-8l-40,0l-10,-10l0,45Z" style="fill:#f20d5e;"/><path d="M396.933,528.162c-2.901,6.871 -12.6,15.65 -13.809,16.728l-0.124,0.11l-20,40c0,0 2.773,7.598 12.056,14.546c4.379,-6.049 11.469,-17.667 22.944,-39.546l-1,-32l-0.067,0.162Z" style="fill:#f20d5e;"/><path d="M513,555l-0.82,-0.555c-17.536,-11.917 -54.18,-39.445 -54.18,-39.445l-1.163,0.498c-7.063,3.082 -44.385,20.238 -58.837,44.502l-0.535,1.018c-5.422,10.31 -9.847,18.29 -13.459,24.454l0,0l0.006,-0.011c0.707,6.213 1.798,14.147 3.315,20.778c9.627,3.699 22.804,5.794 40.673,3.761c0,0 8.696,12.469 14.855,34.478l0.145,0.522l70,50l-5,-45l-45,-25l50,-70ZM387.101,606.152l0.017,0.006l-0.017,-0.006l0,0Z" style="fill:#f20d5e;"/><path d="M310.77,687.626l-37.77,32.374l0,20l54.545,-44.545l-16.775,-7.829Z" style="fill:#f20d5e;"/><path d="M413,335l-6,0c0,0 -19.996,43.855 -61.5,33.5c0,0 -7.3,1.813 -9.5,6.5c0,0 2.258,-0.91 6.783,-0.043l0.217,0.043c0,0 46.44,11.568 69.863,-39.698l0.137,-0.302Z" style="fill:#f20d5e;"/></g></g></svg>